<svg width="200px" height="200px" xmlns="http://www.w3.org/2000/svg" xmlns:xlink="http://www.w3.org/1999/xlink" version="1.1" x="0px" y="0px" viewBox="0 0 100 100"  xml:space="preserve"><g><path d="M92.9,79.3c0,0,0.4-15.1-2.1-24.5s-9.5-21.7-9.5-21.7s1.3-1.4,2.1-3.1c0.8-1.7,1.1-3.6,1.1-3.6s5.2,7.8,8.9,25.9   S92.9,79.3,92.9,79.3z M76.1,31.7C75,32.2,72.9,34,72.9,34s1.4-2.4,2.1-4.3c0.8-1.9,0.9-2.5,1.1-3.4c0.3-1.2,0.5-3.6-1.1-7.4   c-1.5-3.8-4.7-5.8-6.4-7.1c-2-1.4-6.4-3.3-10.2-4.2C54.5,6.8,51.3,7,51.3,7s3.9-2.2,6.3-5.8C58.5-0.2,67.9,4.4,74,9s8.5,7.7,9,11.5   c0.6,3.8-1.1,7.6-3,9.9C79.3,31.3,77.2,31.2,76.1,31.7z M73.5,22c0,0,0.8,3,0.4,5.3c-0.5,2.3-1.9,3.5-3,7.8   c-1.1,4.4-0.2,8.9-2.4,13.5c-3.2,5.1-15.3,10.6-15.3,10.6H50h-3.2c0,0-12.1-5.5-15.3-10.6c-2.2-4.6-1.3-9.2-2.4-13.5   c-1.1-4.4-2.5-5.5-3-7.8C25.7,25,26.5,22,26.5,22s0.1-4.4,7.2-9c7-4.5,15.7-4.1,16.3-4.1s9.3-0.4,16.2,4.1   C73.4,17.6,73.5,22,73.5,22z M59,46.9c0,0,1.4-2.2,2.2-5.3c0.8-3.2,0.8-6.5,0.8-6.5s-0.9,0.1-1.8,0.8s-1.5,1.4-1.5,1.4   s0.7,1.2,0.9,3.5C59.8,43.1,59,46.9,59,46.9z M57.2,32.9c-3.6,1.6-4.9,3.1-4.9,3.1s1.2,0.6,1.7,1s1,1.5,1,1.5s0.6-1.5,2.6-3.5   s8.5-4.5,8.5-4.5S60.7,31.3,57.2,32.9z M41.6,7.6c-3.9,0.8-8.2,2.7-10.2,4.2c-1.8,1.3-4.9,3.3-6.4,7.1s-1.3,6.2-1.1,7.4   c0.2,0.9,0.3,1.6,1.1,3.4c0.8,1.9,2.1,4.3,2.1,4.3s-2.1-1.8-3.2-2.3s-3.2-0.5-3.9-1.3c-1.9-2.2-3.5-6.1-3-9.9c0.6-3.8,3-6.9,9-11.5   s15.4-9.3,16.4-7.8C44.8,4.8,48.7,7,48.7,7S45.5,6.8,41.6,7.6z M9.2,54.9c-2.5,9.4-2.1,24.5-2.1,24.5s-4.1-8.9-0.5-27   s8.9-25.9,8.9-25.9s0.2,1.8,1.1,3.6c0.8,1.7,2.1,3.1,2.1,3.1S11.7,45.5,9.2,54.9z M20.6,37.7c0,0-0.4,2.5,0,3.8s3,2.9,3,2.9   s-5.2,4.6-8.3,15.8s-1.1,30.7-1.1,30.7s-2.7-5.2-3.2-16.4s1.1-17.3,2.3-21.1C14.4,49.5,20.6,37.7,20.6,37.7z M29.3,54.8   c0,0,2.3,2.5,5.8,3.9c3.5,1.5,8.1,1.9,8.1,1.9c0.1,0,0.2,0.1,0.2,0.3l-1,9.1c0,0.1-0.1,0.2-0.2,0.1l-3.6-4.4   c-0.1-0.1-0.3-0.2-0.4-0.3c0,0-3.2-1.3-5.1-2c-2-0.7-5.4-2.5-5.4-2.5c-0.1-0.1-0.2-0.2-0.2-0.3l-0.2-3.7c0,0-0.9-3.9-1.4-5.9   c-0.5-2.1-2.2-6.4-2.2-6.4s2.8,3.2,3.6,4.9C28.1,51,29.3,54.8,29.3,54.8z M23.2,52.5c0.1-0.1,0.1-0.1,0.2,0c0,0,0.8,4.3,0.9,5   c0.2,0.7,0,2.5,0,2.5s-3.1,7.4-3.9,15.3S21.2,99,21.2,99S18,88.7,17.3,79.4c-0.7-9.2,1.3-15.3,1.5-16.4   C20.7,56.2,23.2,52.5,23.2,52.5z M26.8,63.3c0-0.3,0.2-0.4,0.5-0.3l10,3.7c0.2,0.1,0.6,0.3,0.8,0.5l3.7,4.1   c0.1,0.1,0.1,0.3,0.1,0.4l-1.1,12c0,0.1-0.1,0.3-0.1,0.4L40.1,85c-0.1,0.2-0.4,0.2-0.5,0l-13-15.7c-0.2-0.2-0.3-0.6-0.3-0.8   L26.8,63.3z M44.8,60.6H50l0,0l0,0l0,0h5.2l2.9,25.3c0,0.4-0.2,0.9-0.5,1.1l-0.7,0.4c-0.3,0.2-0.9,0.4-1.3,0.4l-5.6,0l-5.6-0.1   c-0.4,0-1-0.2-1.3-0.4l-0.7-0.4c-0.3-0.2-0.6-0.7-0.5-1.1L44.8,60.6z M58.2,71.3l3.7-4.1c0.2-0.2,0.5-0.4,0.8-0.5l10-3.7   c0.2-0.1,0.5,0,0.5,0.3l0.5,5.1c0,0.3-0.1,0.6-0.3,0.8l-12.9,16c-0.2,0.2-0.4,0.2-0.5,0l-0.6-0.9c-0.1-0.1-0.1-0.3-0.1-0.4l-1.1-12   C58.1,71.6,58.1,71.4,58.2,71.3z M72.5,60.5c0,0.1-0.1,0.3-0.2,0.3c0,0-3.4,1.8-5.4,2.5s-5.1,2-5.1,2c-0.1,0-0.3,0.2-0.4,0.3   L57.8,70c-0.1,0.1-0.2,0.1-0.2-0.1l-1-9.1c0-0.1,0.1-0.2,0.2-0.3c0,0,4.5-0.4,8.1-1.9c3.5-1.5,5.8-3.9,5.8-3.9s1.2-3.8,2-5.5   s3.6-4.9,3.6-4.9s-1.7,4.4-2.2,6.4c-0.5,2.1-1.4,5.9-1.4,5.9L72.5,60.5z M79.4,41.5c0.4-1.3,0-3.8,0-3.8s6.2,11.8,7.3,15.7   c1.1,3.8,2.7,10,2.3,21.1c-0.5,11.2-3.2,16.4-3.2,16.4s2-19.5-1.1-30.7s-8.3-15.8-8.3-15.8C76.4,44.4,79,42.8,79.4,41.5z    M76.6,52.5c0-0.1,0.1-0.1,0.2,0c0,0,2.5,3.8,4.4,10.6c0.3,1.1,2.2,7.2,1.5,16.4S78.8,99,78.8,99s1.8-15.9,0.9-23.8   c-1-7.8-4-15.2-4-15.2s-0.2-1.7,0-2.5C75.8,56.8,76.6,52.5,76.6,52.5z"></path></g></svg>
